<svg width="20" height="20" viewBox="0 0 20 20" fill="none" xmlns="http://www.w3.org/2000/svg">
<g opacity="0.8">
<path d="M10 1.25C5.1875 1.25 1.25 5.1875 1.25 10C1.25 14.8125 5.1875 18.75 10 18.75C14.8125 18.75 18.75 14.8125 18.75 10C18.75 5.1875 14.8125 1.25 10 1.25ZM10 17.5C5.875 17.5 2.5 14.125 2.5 10C2.5 5.875 5.875 2.5 10 2.5C14.125 2.5 17.5 5.875 17.5 10C17.5 14.125 14.125 17.5 10 17.5Z" fill="#20201E"/>
<path d="M13.5625 6.4375C13.3125 6.1875 12.9375 6.1875 12.6875 6.4375L10 9.125L7.375 6.5C7.125 6.25 6.75 6.25 6.5 6.5C6.25 6.75 6.25 7.125 6.5 7.375L9.125 10L6.5 12.625C6.25 12.875 6.25 13.25 6.5 13.5C6.75 13.75 7.125 13.75 7.375 13.5L10 10.875L12.625 13.5C12.875 13.75 13.25 13.75 13.5 13.5C13.75 13.25 13.75 12.875 13.5 12.625L10.875 10L13.5 7.375C13.75 7.125 13.75 6.6875 13.5625 6.4375Z" fill="#20201E"/>
</g>
</svg>
