<svg width="20" height="20" viewBox="0 0 20 20" fill="none" xmlns="http://www.w3.org/2000/svg">
<g opacity="0.8">
<path d="M16.5893 14.0586C16.3008 13.844 15.893 13.9039 15.6783 14.1924C15.5597 14.3518 15.4345 14.5061 15.3029 14.6549C15.0648 14.9243 15.0901 15.3358 15.3595 15.5739C15.4783 15.6793 15.6316 15.7374 15.7904 15.7372C15.9705 15.7372 16.1498 15.6629 16.2784 15.5174C16.4342 15.3411 16.5826 15.1583 16.723 14.9695C16.9376 14.6811 16.8778 14.2732 16.5893 14.0586ZM17.6781 11.0054C17.327 10.9289 16.9799 11.1518 16.9035 11.5031C16.8612 11.697 16.8108 11.889 16.7522 12.0786C16.6461 12.4222 16.8385 12.7867 17.182 12.8928C17.2461 12.9126 17.3108 12.922 17.3745 12.922C17.6525 12.922 17.9099 12.7425 17.9963 12.463C18.0657 12.238 18.1256 12.0101 18.1758 11.78C18.2522 11.4287 18.0294 11.0819 17.6781 11.0054ZM13.4556 16.1437C13.2821 16.2405 13.1047 16.3299 12.9237 16.4117C12.596 16.5597 12.4503 16.9453 12.5983 17.273C12.707 17.5137 12.944 17.6562 13.192 17.6562C13.2816 17.6562 13.3726 17.6376 13.4596 17.5984C13.6742 17.5014 13.8847 17.3953 14.0903 17.2805C14.4043 17.1053 14.5167 16.7087 14.3414 16.3947C14.1662 16.0808 13.7695 15.9684 13.4556 16.1437ZM9.3495 4.79167V9.73034L6.96216 12.1176C6.70793 12.3719 6.70793 12.7841 6.96216 13.0383C7.02255 13.0989 7.09431 13.1469 7.17332 13.1796C7.25233 13.2124 7.33702 13.2292 7.42254 13.229C7.50806 13.2291 7.59275 13.2123 7.67176 13.1796C7.75077 13.1469 7.82253 13.0989 7.88293 13.0383L10.4609 10.4604C10.583 10.3383 10.6516 10.1727 10.6516 10V4.79167C10.6516 4.4321 10.3601 4.14062 10.0005 4.14062C9.64097 4.14062 9.3495 4.4321 9.3495 4.79167Z" fill="#20201E"/>
<path d="M17.6826 3.06771C17.323 3.06771 17.0316 3.35918 17.0316 3.71875V5.52656C15.5162 3.15 12.8698 1.66797 10.0003 1.66797C7.77441 1.66797 5.68174 2.5348 4.10775 4.10872C2.53382 5.68271 1.66699 7.77539 1.66699 10.0013C1.66699 12.2272 2.53382 14.3199 4.10775 15.8939C5.68174 17.4678 7.77441 18.3346 10.0003 18.3346C10.0058 18.3346 10.0111 18.334 10.0166 18.3338C10.0221 18.334 10.0274 18.3346 10.0329 18.3346C10.2675 18.3346 10.5045 18.3247 10.7372 18.3053C11.0955 18.2753 11.3617 17.9605 11.3317 17.6022C11.3016 17.2439 10.9873 16.9776 10.6285 17.0077C10.4318 17.0242 10.2314 17.0326 10.0329 17.0326C10.0274 17.0326 10.0221 17.0332 10.0166 17.0334C10.0111 17.0332 10.0058 17.0326 10.0003 17.0326C6.12327 17.0326 2.96908 13.8784 2.96908 10.0013C2.96908 6.12425 6.12327 2.97005 10.0003 2.97005C12.499 2.97005 14.7971 4.30186 16.0529 6.42057H14.2628C13.9032 6.42057 13.6118 6.71204 13.6118 7.07161C13.6118 7.43118 13.9032 7.72266 14.2628 7.72266H16.2503C16.6326 7.7231 17.0075 7.61772 17.3336 7.4182C17.3537 7.40675 17.3732 7.39423 17.392 7.3807C17.9586 7.00794 18.3337 6.36676 18.3337 5.63932V3.71875C18.3337 3.35918 18.0422 3.06771 17.6826 3.06771Z" fill="#20201E"/>
</g>
</svg>
