<svg width="32" height="32" viewBox="0 0 32 32" fill="none" xmlns="http://www.w3.org/2000/svg">
<path fill-rule="evenodd" clip-rule="evenodd" d="M16 4.00065C13.7908 4.00065 12 5.79152 12 8.00065C12 10.2098 13.7908 12.0007 16 12.0007C18.2092 12.0007 20 10.2098 20 8.00065C20 5.79152 18.2092 4.00065 16 4.00065ZM9.33333 8.00065C9.33333 4.31876 12.3181 1.33398 16 1.33398C19.6819 1.33398 22.6667 4.31876 22.6667 8.00065C22.6667 11.6825 19.6819 14.6673 16 14.6673C12.3181 14.6673 9.33333 11.6825 9.33333 8.00065ZM4 26.6673C4 21.5127 8.17868 17.334 13.3333 17.334H18.6667C23.8213 17.334 28 21.5127 28 26.6673V29.334C28 30.0704 27.4031 30.6673 26.6667 30.6673C25.9303 30.6673 25.3333 30.0704 25.3333 29.334V26.6673C25.3333 22.9855 22.3485 20.0007 18.6667 20.0007H13.3333C9.65144 20.0007 6.66667 22.9855 6.66667 26.6673V29.334C6.66667 30.0704 6.06971 30.6673 5.33333 30.6673C4.59696 30.6673 4 30.0704 4 29.334V26.6673ZM13.3333 24.0007C13.7015 24.0007 14 24.2992 14 24.6673V26.0008H15.3333C15.7015 26.0008 16 26.2992 16 26.6674V28.0008C16 28.3689 15.7015 28.6674 15.3333 28.6674H14V30.0007C14 30.3688 13.7015 30.6673 13.3333 30.6673H12C11.6318 30.6673 11.3333 30.3688 11.3333 30.0007L11.3333 28.6674H10C9.63181 28.6674 9.33333 28.3689 9.33333 28.0008V26.6674C9.33333 26.2993 9.63181 26.0008 10 26.0008H11.3333V24.6673C11.3333 24.2992 11.6318 24.0007 12 24.0007H13.3333Z" fill="#17B26A"/>
</svg>
