<svg width="32" height="32" viewBox="0 0 32 32" fill="none" xmlns="http://www.w3.org/2000/svg">
<path d="M9.33333 21.3327C10.4 21.3327 11.3333 20.5327 11.3333 19.466C11.3333 19.3327 11.3333 19.1993 11.3333 19.066L15.0667 15.3327C15.3333 15.3327 15.4667 15.3327 15.7333 15.3327L17.8667 17.466V17.5993C17.8667 18.666 18.8 19.5993 19.8667 19.5993C20.9333 19.5993 21.8667 18.666 21.8667 17.5993V17.466L26.6667 12.666C27.7333 12.666 28.6667 11.7327 28.6667 10.666C28.6667 9.59935 27.7333 8.66602 26.6667 8.66602C25.6 8.66602 24.6667 9.59935 24.6667 10.666C24.6667 10.7993 24.6667 10.7993 24.6667 10.9327L19.8667 15.7327H19.7333H19.6L17.3333 13.3327C17.3333 12.266 16.2667 11.3327 15.2 11.466C14.1333 11.466 13.3333 12.266 13.3333 13.3327L9.33333 17.3327C8.26667 17.3327 7.33333 18.266 7.33333 19.3327C7.33333 20.3993 8.26667 21.3327 9.33333 21.3327ZM27.3333 26.666H4.66667V3.99935C4.66667 3.19935 4.13333 2.66602 3.33333 2.66602C2.53333 2.66602 2 3.19935 2 3.99935V27.9993C2 28.7993 2.53333 29.3327 3.33333 29.3327H27.3333C28.1333 29.3327 28.6667 28.7993 28.6667 27.9993C28.6667 27.1993 28.1333 26.666 27.3333 26.666Z" fill="#17B26A"/>
</svg>
