<svg width="20" height="20" viewBox="0 0 20 20" fill="none" xmlns="http://www.w3.org/2000/svg">
<g opacity="0.8">
<path d="M9.96792 18C9.02089 18 8.07387 17.8543 7.19969 17.4901C5.59703 16.9073 4.21291 15.8146 3.26588 14.3576C2.31886 12.9006 1.88177 11.1523 2.02746 9.47676C2.17316 7.7284 2.82879 6.12574 3.92152 4.81447C5.01424 3.5032 6.54405 2.55617 8.21956 2.19193C9.89507 1.82769 11.6434 1.97339 13.2461 2.70187C13.6103 2.84757 13.756 3.28465 13.6103 3.6489C13.4646 4.01314 13.0275 4.15883 12.6633 4.01314C11.352 3.43035 9.89507 3.28466 8.5838 3.57605C7.12684 3.86744 5.88842 4.66877 5.01424 5.76149C4.06721 6.85422 3.55727 8.16549 3.48443 9.62245C3.41158 11.0066 3.77582 12.4635 4.5043 13.6291C5.23278 14.7947 6.39836 15.7417 7.70962 16.1788C9.02089 16.6887 10.4779 16.6887 11.862 16.3245C13.1732 15.9602 14.4117 15.0861 15.2858 13.9933C16.16 12.9006 16.5971 11.4437 16.5971 10.0595V9.40391C16.5971 8.96682 16.8885 8.67542 17.3256 8.67542C17.7627 8.67542 18.0541 8.96682 18.0541 9.40391V9.98669C18.0541 11.7351 17.4713 13.4106 16.4514 14.7947C15.4315 16.1788 13.9746 17.1987 12.2991 17.7086C11.4977 17.8543 10.7692 18 9.96792 18ZM9.96792 12.1721C9.74937 12.1721 9.60368 12.0993 9.45798 11.9536L7.27253 9.76815C6.98114 9.47676 6.98114 9.03967 7.27253 8.74827C7.56393 8.45688 8.00102 8.45688 8.29241 8.74827L9.96792 10.4238L16.7428 3.6489C17.0342 3.3575 17.4713 3.3575 17.7627 3.6489C18.0541 3.94029 18.0541 4.37738 17.7627 4.66877L10.4779 11.9536C10.3322 12.0993 10.1865 12.1721 9.96792 12.1721Z" fill="#20201E"/>
</g>
</svg>
