<svg width="32" height="32" viewBox="0 0 32 32" fill="none" xmlns="http://www.w3.org/2000/svg">
<path d="M16.0003 2.66602C13.3632 2.66602 10.7854 3.448 8.59273 4.91309C6.40007 6.37817 4.69111 8.46055 3.68194 10.8969C2.67277 13.3333 2.40872 16.0141 2.92319 18.6006C3.43766 21.187 4.70754 23.5627 6.57224 25.4274C8.43694 27.2921 10.8127 28.562 13.3991 29.0765C15.9855 29.591 18.6664 29.3269 21.1028 28.3177C23.5391 27.3086 25.6215 25.5996 27.0866 23.4069C28.5517 21.2143 29.3337 18.6364 29.3337 15.9993C29.3337 14.2484 28.9888 12.5146 28.3187 10.8969C27.6487 9.27923 26.6665 7.80937 25.4284 6.57126C24.1903 5.33314 22.7205 4.35102 21.1028 3.68096C19.4851 3.01089 17.7513 2.66602 16.0003 2.66602ZM16.0003 26.666C13.8907 26.666 11.8284 26.0404 10.0742 24.8684C8.32012 23.6963 6.95295 22.0304 6.14562 20.0813C5.33828 18.1322 5.12705 15.9875 5.53862 13.9184C5.9502 11.8493 6.9661 9.94864 8.45786 8.45688C9.94962 6.96512 11.8502 5.94922 13.9194 5.53764C15.9885 5.12606 18.1332 5.3373 20.0823 6.14463C22.0314 6.95197 23.6973 8.31914 24.8693 10.0733C26.0414 11.8274 26.667 13.8897 26.667 15.9993C26.667 18.8283 25.5432 21.5414 23.5428 23.5418C21.5424 25.5422 18.8293 26.666 16.0003 26.666Z" fill="#CF604A"/>
<path d="M16.0006 8C15.647 8 15.3079 8.14048 15.0578 8.39052C14.8078 8.64057 14.6673 8.97971 14.6673 9.33333V15.4533L11.0539 19.0533C10.9144 19.1729 10.801 19.32 10.721 19.4854C10.641 19.6508 10.596 19.831 10.5889 20.0146C10.5818 20.1982 10.6127 20.3813 10.6798 20.5524C10.7468 20.7235 10.8485 20.8789 10.9784 21.0089C11.1084 21.1388 11.2638 21.2405 11.4349 21.3075C11.606 21.3745 11.7891 21.4055 11.9727 21.3984C12.1563 21.3913 12.3365 21.3463 12.5019 21.2663C12.6673 21.1863 12.8144 21.0729 12.9339 20.9333L16.9339 16.9333C17.1852 16.6872 17.3289 16.3517 17.3339 16V9.33333C17.3339 8.97971 17.1935 8.64057 16.9434 8.39052C16.6934 8.14048 16.3542 8 16.0006 8Z" fill="#CF604A"/>
</svg>
